<mxfile host="app.diagrams.net" agent="Mozilla/5.0 (Macintosh; Intel Mac OS X 10_15_7) AppleWebKit/537.36 (KHTML, like Gecko) Chrome/138.0.0.0 Safari/537.36" version="28.0.7">
  <diagram name="Page-1" id="LvBeMGtgzo2CgyPczaHb">
    <mxGraphModel dx="946" dy="610" grid="1" gridSize="10" guides="1" tooltips="1" connect="1" arrows="1" fold="1" page="1" pageScale="1" pageWidth="827" pageHeight="1169" math="0" shadow="0">
      <root>
        <mxCell id="0" />
        <mxCell id="1" parent="0" />
        <mxCell id="NB9ExdPc5aUv6vh4UwDz-4" value="" style="edgeStyle=orthogonalEdgeStyle;rounded=0;orthogonalLoop=1;jettySize=auto;html=1;" edge="1" parent="1" source="NB9ExdPc5aUv6vh4UwDz-1" target="NB9ExdPc5aUv6vh4UwDz-2">
          <mxGeometry relative="1" as="geometry" />
        </mxCell>
        <mxCell id="NB9ExdPc5aUv6vh4UwDz-1" value="client" style="rounded=1;whiteSpace=wrap;html=1;" vertex="1" parent="1">
          <mxGeometry x="70" y="190" width="120" height="60" as="geometry" />
        </mxCell>
        <mxCell id="NB9ExdPc5aUv6vh4UwDz-6" style="edgeStyle=orthogonalEdgeStyle;rounded=0;orthogonalLoop=1;jettySize=auto;html=1;entryX=0;entryY=0.5;entryDx=0;entryDy=0;" edge="1" parent="1" source="NB9ExdPc5aUv6vh4UwDz-2" target="NB9ExdPc5aUv6vh4UwDz-3">
          <mxGeometry relative="1" as="geometry" />
        </mxCell>
        <mxCell id="NB9ExdPc5aUv6vh4UwDz-18" style="edgeStyle=orthogonalEdgeStyle;rounded=0;orthogonalLoop=1;jettySize=auto;html=1;entryX=0;entryY=0.5;entryDx=0;entryDy=0;" edge="1" parent="1" source="NB9ExdPc5aUv6vh4UwDz-2" target="NB9ExdPc5aUv6vh4UwDz-17">
          <mxGeometry relative="1" as="geometry" />
        </mxCell>
        <mxCell id="NB9ExdPc5aUv6vh4UwDz-2" value="load balancer api gateway" style="rounded=0;whiteSpace=wrap;html=1;" vertex="1" parent="1">
          <mxGeometry x="270" y="110" width="120" height="240" as="geometry" />
        </mxCell>
        <mxCell id="NB9ExdPc5aUv6vh4UwDz-9" value="" style="edgeStyle=orthogonalEdgeStyle;rounded=0;orthogonalLoop=1;jettySize=auto;html=1;" edge="1" parent="1" source="NB9ExdPc5aUv6vh4UwDz-3" target="NB9ExdPc5aUv6vh4UwDz-8">
          <mxGeometry relative="1" as="geometry" />
        </mxCell>
        <mxCell id="NB9ExdPc5aUv6vh4UwDz-11" style="edgeStyle=orthogonalEdgeStyle;rounded=0;orthogonalLoop=1;jettySize=auto;html=1;entryX=0;entryY=0.5;entryDx=0;entryDy=0;" edge="1" parent="1" source="NB9ExdPc5aUv6vh4UwDz-3" target="NB9ExdPc5aUv6vh4UwDz-10">
          <mxGeometry relative="1" as="geometry" />
        </mxCell>
        <mxCell id="NB9ExdPc5aUv6vh4UwDz-3" value="file service&amp;nbsp;" style="rounded=0;whiteSpace=wrap;html=1;" vertex="1" parent="1">
          <mxGeometry x="480" y="110" width="110" height="60" as="geometry" />
        </mxCell>
        <mxCell id="NB9ExdPc5aUv6vh4UwDz-7" value="file upload" style="text;html=1;align=center;verticalAlign=middle;resizable=0;points=[];autosize=1;strokeColor=none;fillColor=none;" vertex="1" parent="1">
          <mxGeometry x="390" y="188" width="80" height="30" as="geometry" />
        </mxCell>
        <mxCell id="NB9ExdPc5aUv6vh4UwDz-8" value="s3" style="ellipse;whiteSpace=wrap;html=1;aspect=fixed;" vertex="1" parent="1">
          <mxGeometry x="660" y="30" width="80" height="80" as="geometry" />
        </mxCell>
        <mxCell id="NB9ExdPc5aUv6vh4UwDz-10" value="metadata storage" style="ellipse;whiteSpace=wrap;html=1;aspect=fixed;" vertex="1" parent="1">
          <mxGeometry x="670" y="200" width="80" height="80" as="geometry" />
        </mxCell>
        <mxCell id="NB9ExdPc5aUv6vh4UwDz-12" value="metadata&amp;nbsp;" style="text;html=1;align=center;verticalAlign=middle;resizable=0;points=[];autosize=1;strokeColor=none;fillColor=none;" vertex="1" parent="1">
          <mxGeometry x="630" y="160" width="80" height="30" as="geometry" />
        </mxCell>
        <mxCell id="NB9ExdPc5aUv6vh4UwDz-13" value="file&amp;nbsp;" style="text;html=1;align=center;verticalAlign=middle;resizable=0;points=[];autosize=1;strokeColor=none;fillColor=none;" vertex="1" parent="1">
          <mxGeometry x="590" y="70" width="40" height="30" as="geometry" />
        </mxCell>
        <mxCell id="NB9ExdPc5aUv6vh4UwDz-16" value="" style="curved=1;endArrow=classic;html=1;rounded=0;" edge="1" parent="1" source="NB9ExdPc5aUv6vh4UwDz-1" target="NB9ExdPc5aUv6vh4UwDz-8">
          <mxGeometry width="50" height="50" relative="1" as="geometry">
            <mxPoint x="31.759999999999962" y="190" as="sourcePoint" />
            <mxPoint x="571.7847768459408" y="67.72448870917037" as="targetPoint" />
            <Array as="points">
              <mxPoint x="310" y="100" />
              <mxPoint x="-70" y="40" />
              <mxPoint x="260" y="50" />
            </Array>
          </mxGeometry>
        </mxCell>
        <mxCell id="NB9ExdPc5aUv6vh4UwDz-19" value="" style="edgeStyle=orthogonalEdgeStyle;rounded=0;orthogonalLoop=1;jettySize=auto;html=1;" edge="1" parent="1" source="NB9ExdPc5aUv6vh4UwDz-17" target="NB9ExdPc5aUv6vh4UwDz-3">
          <mxGeometry relative="1" as="geometry" />
        </mxCell>
        <mxCell id="NB9ExdPc5aUv6vh4UwDz-17" value="sync service" style="rounded=0;whiteSpace=wrap;html=1;" vertex="1" parent="1">
          <mxGeometry x="480" y="270" width="120" height="60" as="geometry" />
        </mxCell>
      </root>
    </mxGraphModel>
  </diagram>
</mxfile>
